<svg id="Dark" xmlns="http://www.w3.org/2000/svg" viewBox="0 0 250 250"><defs><style>.cls-1{fill:#28334a;}.cls-2{fill:#c4d600;}.cls-3{fill:#fff;}</style></defs><title>HMC-Clark_FINAL-RGB</title><rect class="cls-1" x="-307.21184" y="-69.99834" width="1919.5" height="1080"/><path class="cls-2" d="M177.15,114.6112l-6.28655-3.63052a4.52584,4.52584,0,0,1-2.307-3.95554,11.97911,11.97911,0,0,0-1.6352-6.23326,12.11333,12.11333,0,0,0-16.63395-4.38574,4.53556,4.53556,0,0,1-4.57448.05l-6.28855-3.63163a4.52528,4.52528,0,0,1-2.30675-3.95428,11.9803,11.9803,0,0,0-1.63518-6.23132,12.11365,12.11365,0,0,0-16.63225-4.38676,4.53548,4.53548,0,0,1-4.57361.04946l-6.3511-3.66776a4.5874,4.5874,0,0,1-2.24523-4.04733,11.97641,11.97641,0,0,0-1.585-6.01637A12.10826,12.10826,0,1,0,87.57246,81.064a4.569,4.569,0,0,1,2.35715,3.95324V92.3584a4.48542,4.48542,0,0,1-2.30093,3.91775,11.98089,11.98089,0,0,0-4.55,4.51573,12.11363,12.11363,0,0,0,4.52,16.59913,4.53546,4.53546,0,0,1,2.3309,3.93631v7.34323a4.48542,4.48542,0,0,1-2.30093,3.91775,11.981,11.981,0,0,0-4.55,4.51573,12.11363,12.11363,0,0,0,4.52,16.59913,4.53548,4.53548,0,0,1,2.3309,3.93632v7.33832a4.58738,4.58738,0,0,1-2.382,3.96832,11.97622,11.97622,0,0,0-4.41827,4.38307,12.10828,12.10828,0,1,0,22.54715,6.05747,4.569,4.569,0,0,1,2.24456-4.01841l6.28672-3.63061a4.5243,4.5243,0,0,1,4.57779-.02108A11.98069,11.98069,0,0,0,125,173.41618a12.11372,12.11372,0,0,0,12.11523-12.21593,4.53538,4.53538,0,0,1,2.243-3.987l6.2886-3.63169a4.52417,4.52417,0,0,1,4.57772-.02105,11.98025,11.98025,0,0,0,6.21434,1.69962,12.1137,12.1137,0,0,0,12.11522-12.21576,4.53544,4.53544,0,0,1,2.24306-3.98705l6.34824-3.66608a4.58741,4.58741,0,0,1,4.62767.07819,11.97705,11.97705,0,0,0,6.00326,1.63421,12.10826,12.10826,0,1,0-6.02415-22.55664A4.56908,4.56908,0,0,1,177.15,114.6112Zm-9.985,18.15708a4.53555,4.53555,0,0,1-4.57444-.04992,12.11361,12.11361,0,0,0-16.63409,4.38567,11.98044,11.98044,0,0,0-1.6351,6.23327,4.526,4.526,0,0,1-2.307,3.95551l-6.2882,3.63152a4.53553,4.53553,0,0,1-4.57448-.04994,12.11356,12.11356,0,0,0-16.63408,4.38572,11.98028,11.98028,0,0,0-1.63517,6.23326,4.526,4.526,0,0,1-2.30707,3.95557l-6.28606,3.63028a4.55325,4.55325,0,0,1-4.59127-.05889q-.06726-.03945-.13494-.078a4.57872,4.57872,0,0,1-2.371-3.96153v-7.34111a4.53548,4.53548,0,0,1,2.331-3.93638,12.11358,12.11358,0,0,0,4.52035-16.59931,11.9814,11.9814,0,0,0-4.55037-4.5159,4.4854,4.4854,0,0,1-2.301-3.9178v-7.34276a4.53554,4.53554,0,0,1,2.331-3.93639,12.11357,12.11357,0,0,0,4.52035-16.5993,11.9814,11.9814,0,0,0-4.55037-4.5159,4.48542,4.48542,0,0,1-2.301-3.9178V85.01784a4.55328,4.55328,0,0,1,2.3472-3.94647q.06795-.03859.13529-.078a4.57865,4.57865,0,0,1,4.61626-.07205l6.35091,3.66769a4.53549,4.53549,0,0,1,2.243,3.988A12.11363,12.11363,0,0,0,125,100.795a11.97984,11.97984,0,0,0,6.2159-1.70071,4.52471,4.52471,0,0,1,4.57887.02069l6.28586,3.63016a4.53542,4.53542,0,0,1,2.243,3.98707A12.11369,12.11369,0,0,0,156.439,118.948a11.98038,11.98038,0,0,0,6.21418-1.69957,4.52421,4.52421,0,0,1,4.57764.02108l6.2868,3.6306a4.55257,4.55257,0,0,1,2.24367,4.00551q-.00058.0806-.00007.16108a4.578,4.578,0,0,1-2.24473,4.03359Z"/><path class="cls-3" d="M72.60451,82.63891a12.10406,12.10406,0,1,1-20.96488,0A12.104,12.104,0,0,1,72.60451,82.63891ZM51.63963,118.948a12.10406,12.10406,0,1,0,20.96488,0A12.10409,12.10409,0,0,0,51.63963,118.948Zm0,36.31215a12.10406,12.10406,0,1,0,20.96488,0A12.10409,12.10409,0,0,0,51.63963,155.26011ZM187.87787,100.795a12.10407,12.10407,0,1,0-10.48245-18.15607A12.104,12.104,0,0,0,187.87787,100.795Zm-10.48245,54.46513a12.10407,12.10407,0,1,0,20.96489,0A12.104,12.104,0,0,0,177.39542,155.26011ZM156.439,82.6358a12.104,12.104,0,1,0-10.48245-18.15607A12.10393,12.10393,0,0,0,156.439,82.6358Zm-10.48245,90.78038a12.104,12.104,0,1,0,20.96474,0A12.10405,12.10405,0,0,0,145.95651,173.41618ZM125,64.47973A12.104,12.104,0,1,0,114.5176,46.32365,12.10394,12.10394,0,0,0,125,64.47973ZM114.5176,118.948a12.104,12.104,0,1,0,20.96474,0A12.104,12.104,0,0,0,114.5176,118.948Zm0,72.6243a12.104,12.104,0,1,0,20.96474,0A12.104,12.104,0,0,0,114.5176,191.57226Z"/></svg>