<svg id="Dark" xmlns="http://www.w3.org/2000/svg" viewBox="0 0 537.56 269.46"><defs><style>.cls-1{fill:#28334a;}.cls-2{fill:#fff;}.cls-3{fill:#c4d600;}</style></defs><title>HMC-Clark_FINAL-RGB</title><rect class="cls-1" x="-1171.22" y="-45.27" width="1919.5" height="1080"/><g id="HMC"><path class="cls-2" d="M302.00852,99.72561V169.73h-10.001V138.52785H250.00559V169.73h-10.001V99.72561h10.001v29.20166h42.00195V99.72561Zm97.06738,0V169.73h-10.001V116.72658l-25.40137,33.80225h-1.20019L337.072,116.72658V169.73H327.071V99.72561h9.001l27.001,36.00244,27.002-36.00244ZM420.154,134.72805c0-20.20118,14.10059-36.00244,35.90235-36.00244,14.90039,0,26.001,7.60058,31.001,17.70117l-8.5,4.90039c-3.40039-7.80078-11.501-13.001-22.20117-13.001-16.40137,0-26.20215,11.80078-26.20215,26.40186,0,14.60058,10.10059,26.40136,26.502,26.40136,10.90039,0,19.001-5.20019,22.40136-13.001l8.501,4.90039c-5.001,10.10058-16.10156,17.70117-31.20215,17.70117C434.55441,170.73,420.154,154.92922,420.154,134.72805Z"/><path class="cls-3" d="M177.1517,124.3412l-6.28655-3.63052a4.52584,4.52584,0,0,1-2.307-3.95554,11.97911,11.97911,0,0,0-1.6352-6.23326,12.11333,12.11333,0,0,0-16.63395-4.38574,4.53556,4.53556,0,0,1-4.57448.05l-6.28855-3.63163a4.52528,4.52528,0,0,1-2.30675-3.95428,11.9803,11.9803,0,0,0-1.63518-6.23132,12.11365,12.11365,0,0,0-16.63225-4.38676,4.53548,4.53548,0,0,1-4.57361.04946l-6.3511-3.66776a4.5874,4.5874,0,0,1-2.24523-4.04733,11.97641,11.97641,0,0,0-1.585-6.01637A12.10826,12.10826,0,1,0,87.57414,90.794a4.569,4.569,0,0,1,2.35715,3.95324v7.34121a4.48542,4.48542,0,0,1-2.30093,3.91775,11.98092,11.98092,0,0,0-4.55,4.51573,12.11364,12.11364,0,0,0,4.52,16.59913,4.53546,4.53546,0,0,1,2.3309,3.93631v7.34323a4.48542,4.48542,0,0,1-2.30093,3.91775,11.98106,11.98106,0,0,0-4.55,4.51573,12.11364,12.11364,0,0,0,4.52,16.59913,4.53548,4.53548,0,0,1,2.3309,3.93632v7.33832a4.58735,4.58735,0,0,1-2.382,3.96832,11.97614,11.97614,0,0,0-4.41827,4.38307,12.10828,12.10828,0,1,0,22.54714,6.05747,4.569,4.569,0,0,1,2.24457-4.01841l6.28672-3.63061a4.5243,4.5243,0,0,1,4.57779-.02108,11.98069,11.98069,0,0,0,6.21445,1.69962A12.11372,12.11372,0,0,0,137.117,170.93025a4.53538,4.53538,0,0,1,2.243-3.987l6.2886-3.63169a4.52417,4.52417,0,0,1,4.57772-.02105,11.98025,11.98025,0,0,0,6.21434,1.69962,12.1137,12.1137,0,0,0,12.11522-12.21576,4.53542,4.53542,0,0,1,2.24306-3.98705l6.34824-3.66608a4.58741,4.58741,0,0,1,4.62767.07819,11.97705,11.97705,0,0,0,6.00326,1.63421,12.10826,12.10826,0,1,0-6.02415-22.55664A4.56908,4.56908,0,0,1,177.1517,124.3412Zm-9.985,18.15708a4.53555,4.53555,0,0,1-4.57444-.04992,12.11361,12.11361,0,0,0-16.63409,4.38567,11.98044,11.98044,0,0,0-1.6351,6.23327,4.526,4.526,0,0,1-2.30705,3.95551l-6.2882,3.63152a4.53553,4.53553,0,0,1-4.57448-.04994,12.11356,12.11356,0,0,0-16.63408,4.38572,11.98028,11.98028,0,0,0-1.63517,6.23326,4.526,4.526,0,0,1-2.30707,3.95557l-6.28606,3.63028a4.55325,4.55325,0,0,1-4.59127-.05889q-.06726-.03945-.13494-.078a4.57872,4.57872,0,0,1-2.371-3.96153v-7.34111a4.53548,4.53548,0,0,1,2.331-3.93638,12.11358,12.11358,0,0,0,4.52035-16.59931,11.9814,11.9814,0,0,0-4.55037-4.5159,4.4854,4.4854,0,0,1-2.301-3.9178v-7.34276a4.53554,4.53554,0,0,1,2.331-3.93639,12.11357,12.11357,0,0,0,4.52035-16.5993,11.9814,11.9814,0,0,0-4.55037-4.5159,4.48542,4.48542,0,0,1-2.301-3.9178V94.74784a4.55331,4.55331,0,0,1,2.34721-3.94647q.06795-.0386.13529-.078a4.57865,4.57865,0,0,1,4.61626-.072L110.6434,94.319a4.53549,4.53549,0,0,1,2.243,3.988,12.11363,12.11363,0,0,0,12.1153,12.218,11.97984,11.97984,0,0,0,6.2159-1.70071,4.52471,4.52471,0,0,1,4.57887.02069l6.28586,3.63016a4.53542,4.53542,0,0,1,2.243,3.98707A12.11369,12.11369,0,0,0,156.44064,128.678a11.98038,11.98038,0,0,0,6.21418-1.69957,4.52421,4.52421,0,0,1,4.57764.02108l6.2868,3.6306a4.55257,4.55257,0,0,1,2.24367,4.00551q-.00059.0806-.00008.16108a4.57794,4.57794,0,0,1-2.24472,4.03359Z"/><path class="cls-2" d="M72.60619,92.36891a12.10407,12.10407,0,1,1-20.96489,0A12.104,12.104,0,0,1,72.60619,92.36891ZM51.6413,128.678a12.10407,12.10407,0,1,0,20.96489,0A12.10409,12.10409,0,0,0,51.6413,128.678Zm0,36.31215a12.10407,12.10407,0,1,0,20.96489,0A12.10409,12.10409,0,0,0,51.6413,164.99011ZM187.87955,110.525A12.10407,12.10407,0,1,0,177.3971,92.36891,12.104,12.104,0,0,0,187.87955,110.525ZM177.3971,164.99011a12.10407,12.10407,0,1,0,20.96489,0A12.104,12.104,0,0,0,177.3971,164.99011ZM156.44064,92.3658a12.104,12.104,0,1,0-10.48245-18.15607A12.10393,12.10393,0,0,0,156.44064,92.3658Zm-10.48245,90.78038a12.104,12.104,0,1,0,20.96474,0A12.10405,12.10405,0,0,0,145.95819,183.14618ZM125.00172,74.20973a12.104,12.104,0,1,0-10.48244-18.15608A12.10394,12.10394,0,0,0,125.00172,74.20973ZM114.51928,128.678a12.104,12.104,0,1,0,20.96474,0A12.104,12.104,0,0,0,114.51928,128.678Zm0,72.6243a12.104,12.104,0,1,0,20.96474,0A12.104,12.104,0,0,0,114.51928,201.30226Z"/></g></svg>